P3
10 6
255
37 58 63 87 112 90 111 168 100 86 86 136 75 83 102 114 170 107 95 120 91 218 167 148 227 165 126 137 112 116 
71 90 94 115 140 111 109 85 133 49 15 102 52 21 114 139 125 151 213 184 154 255 191 167 228 149 136 186 122 87 
68 85 75 85 102 96 35 9 80 7 0 13 12 0 68 42 6 116 194 148 161 255 205 151 237 163 126 185 112 69 
82 101 71 61 71 96 3 3 67 4 1 20 24 13 71 25 5 104 193 158 182 255 221 165 232 156 104 143 77 53 
76 97 56 48 60 74 39 5 117 33 0 120 38 0 110 47 21 58 169 133 109 233 167 145 164 93 89 103 50 44 
63 83 56 65 84 62 50 11 90 50 18 117 32 9 97 28 16 36 52 41 9 91 76 57 64 52 66 77 76 90 